<?xml version="1.0" encoding="UTF-8" standalone="no"?><!-- Generator: Gravit.io --><svg xmlns="http://www.w3.org/2000/svg" xmlns:xlink="http://www.w3.org/1999/xlink" style="isolation:isolate" viewBox="0 0 687.5 128" width="687.5pt" height="128pt"><circle vector-effect="non-scaling-stroke" cx="64" cy="64" r="64" fill="rgb(121,0,255)"/><circle vector-effect="non-scaling-stroke" cx="64" cy="64" r="40" fill="rgb(84,140,255)"/><circle vector-effect="non-scaling-stroke" cx="64" cy="64" r="16" fill="rgb(255,255,255)"/><path d=" M 185.539 118.859 L 160 118.859 L 198.95 18.986 L 226.915 18.986 L 265.294 118.859 L 238.757 118.859 L 230.482 95.032 L 193.957 95.032 L 185.539 118.859 Z  M 212.362 42.955 L 200.662 76.056 L 223.918 76.056 L 212.362 42.955 Z  M 344.764 118.859 L 321.936 118.859 L 321.936 109.299 L 321.936 109.299 Q 318.369 113.865 312.591 116.576 L 312.591 116.576 L 312.591 116.576 Q 306.813 119.287 300.25 119.287 L 300.25 119.287 L 300.25 119.287 Q 293.544 119.287 287.552 116.362 L 287.552 116.362 L 287.552 116.362 Q 281.559 113.437 277.208 108.372 L 277.208 108.372 L 277.208 108.372 Q 272.856 103.307 270.288 96.459 L 270.288 96.459 L 270.288 96.459 Q 267.72 89.61 267.72 81.906 L 267.72 81.906 L 267.72 81.906 Q 267.72 74.201 270.359 67.424 L 270.359 67.424 L 270.359 67.424 Q 272.999 60.647 277.636 55.654 L 277.636 55.654 L 277.636 55.654 Q 282.273 50.66 288.55 47.735 L 288.55 47.735 L 288.55 47.735 Q 294.828 44.81 301.962 44.81 L 301.962 44.81 L 301.962 44.81 Q 307.669 44.81 312.805 47.093 L 312.805 47.093 L 312.805 47.093 Q 317.941 49.376 321.651 53.656 L 321.651 53.656 L 321.651 16.846 L 344.764 13.279 L 344.764 118.859 Z  M 290.405 82.048 L 290.405 82.048 L 290.405 82.048 Q 290.405 89.753 295.47 94.961 L 295.47 94.961 L 295.47 94.961 Q 300.535 100.168 307.954 100.168 L 307.954 100.168 L 307.954 100.168 Q 312.092 100.168 315.516 98.67 L 315.516 98.67 L 315.516 98.67 Q 318.94 97.172 321.651 94.318 L 321.651 94.318 L 321.651 69.493 L 321.651 69.493 Q 318.94 66.782 315.445 65.284 L 315.445 65.284 L 315.445 65.284 Q 311.949 63.786 307.954 63.786 L 307.954 63.786 L 307.954 63.786 Q 300.392 63.786 295.399 68.994 L 295.399 68.994 L 295.399 68.994 Q 290.405 74.201 290.405 82.048 Z  M 385.855 118.859 L 362.741 118.859 L 362.741 45.238 L 385.855 45.238 L 385.855 56.938 L 385.855 56.938 Q 389.85 50.66 395.414 47.378 L 395.414 47.378 L 395.414 47.378 Q 400.978 44.097 407.684 44.097 L 407.684 44.097 L 407.684 44.097 Q 414.818 44.097 420.239 47.806 L 420.239 47.806 L 420.239 47.806 Q 425.661 51.516 428.372 57.794 L 428.372 57.794 L 428.372 57.794 Q 432.652 51.231 438.787 47.664 L 438.787 47.664 L 438.787 47.664 Q 444.922 44.097 452.484 44.097 L 452.484 44.097 L 452.484 44.097 Q 462.614 44.097 469.106 51.373 L 469.106 51.373 L 469.106 51.373 Q 475.597 58.65 475.597 69.921 L 475.597 69.921 L 475.597 118.859 L 452.484 118.859 L 452.484 74.487 L 452.484 74.487 Q 452.484 68.922 449.417 65.569 L 449.417 65.569 L 449.417 65.569 Q 446.349 62.217 441.498 62.217 L 441.498 62.217 L 441.498 62.217 Q 438.359 62.217 435.72 63.572 L 435.72 63.572 L 435.72 63.572 Q 433.08 64.927 430.797 67.924 L 430.797 67.924 L 430.797 118.859 L 407.684 118.859 L 407.684 74.487 L 407.684 74.487 Q 407.684 68.922 404.617 65.569 L 404.617 65.569 L 404.617 65.569 Q 401.549 62.217 396.698 62.217 L 396.698 62.217 L 396.698 62.217 Q 393.559 62.217 390.848 63.643 L 390.848 63.643 L 390.848 63.643 Q 388.138 65.07 385.855 67.924 L 385.855 67.924 L 385.855 118.859 Z  M 504.561 33.824 L 504.561 33.824 L 504.561 33.824 Q 499.139 33.824 495.358 30.043 L 495.358 30.043 L 495.358 30.043 Q 491.577 26.262 491.577 20.983 L 491.577 20.983 L 491.577 20.983 Q 491.577 15.704 495.429 11.852 L 495.429 11.852 L 495.429 11.852 Q 499.282 8 504.561 8 L 504.561 8 L 504.561 8 Q 509.839 8 513.763 11.852 L 513.763 11.852 L 513.763 11.852 Q 517.687 15.704 517.687 20.983 L 517.687 20.983 L 517.687 20.983 Q 517.687 26.262 513.906 30.043 L 513.906 30.043 L 513.906 30.043 Q 510.125 33.824 504.561 33.824 Z  M 493.004 45.238 L 516.117 45.238 L 516.117 118.859 L 493.004 118.859 L 493.004 45.238 Z  M 557.208 118.859 L 534.094 118.859 L 534.094 45.238 L 557.208 45.238 L 557.208 57.223 L 557.208 57.223 Q 561.488 50.803 567.409 47.45 L 567.409 47.45 L 567.409 47.45 Q 573.33 44.097 580.464 44.097 L 580.464 44.097 L 580.464 44.097 Q 591.164 44.097 598.013 51.159 L 598.013 51.159 L 598.013 51.159 Q 604.861 58.222 604.861 69.208 L 604.861 69.208 L 604.861 118.859 L 581.748 118.859 L 581.748 75.913 L 581.748 75.913 Q 581.748 69.778 578.395 65.997 L 578.395 65.997 L 578.395 65.997 Q 575.042 62.217 569.478 62.217 L 569.478 62.217 L 569.478 62.217 Q 565.768 62.217 562.701 63.715 L 562.701 63.715 L 562.701 63.715 Q 559.633 65.213 557.208 68.352 L 557.208 68.352 L 557.208 118.859 Z  M 644.239 120 L 644.239 120 L 644.239 120 Q 633.111 120 625.977 113.794 L 625.977 113.794 L 625.977 113.794 Q 618.843 107.587 618.843 97.743 L 618.843 97.743 L 618.843 97.743 Q 618.843 87.613 626.405 81.977 L 626.405 81.977 L 626.405 81.977 Q 633.967 76.341 647.521 76.341 L 647.521 76.341 L 647.521 76.341 Q 651.516 76.341 655.654 77.126 L 655.654 77.126 L 655.654 77.126 Q 659.791 77.911 664.642 79.766 L 664.642 79.766 L 664.642 73.773 L 664.642 73.773 Q 664.642 68.494 661.004 65.783 L 661.004 65.783 L 661.004 65.783 Q 657.366 63.073 650.089 63.073 L 650.089 63.073 L 650.089 63.073 Q 645.952 63.073 640.887 64.285 L 640.887 64.285 L 640.887 64.285 Q 635.822 65.498 629.401 68.209 L 629.401 68.209 L 621.411 52.087 L 621.411 52.087 Q 630.4 48.092 638.746 46.094 L 638.746 46.094 L 638.746 46.094 Q 647.093 44.097 655.225 44.097 L 655.225 44.097 L 655.225 44.097 Q 670.492 44.097 678.981 51.373 L 678.981 51.373 L 678.981 51.373 Q 687.47 58.65 687.47 71.776 L 687.47 71.776 L 687.47 118.859 L 664.642 118.859 L 664.642 112.438 L 664.642 112.438 Q 659.791 116.433 654.94 118.217 L 654.94 118.217 L 654.94 118.217 Q 650.089 120 644.239 120 Z  M 640.102 97.315 L 640.102 97.315 L 640.102 97.315 Q 640.102 100.882 643.098 102.808 L 643.098 102.808 L 643.098 102.808 Q 646.094 104.734 651.373 104.734 L 651.373 104.734 L 651.373 104.734 Q 654.94 104.734 658.293 103.806 L 658.293 103.806 L 658.293 103.806 Q 661.646 102.879 664.642 101.024 L 664.642 101.024 L 664.642 91.608 L 664.642 91.608 Q 661.503 90.894 658.293 90.466 L 658.293 90.466 L 658.293 90.466 Q 655.083 90.038 651.944 90.038 L 651.944 90.038 L 651.944 90.038 Q 646.237 90.038 643.169 91.893 L 643.169 91.893 L 643.169 91.893 Q 640.102 93.748 640.102 97.315 Z " fill="rgb(26,26,64)"/></svg>